<svg width="77" height="77" viewBox="0 0 77 77" fill="none" xmlns="http://www.w3.org/2000/svg">
<g clip-path="url(#clip0_302_91)">
<path d="M46.7133 13.6132C44.3228 11.4454 41.133 10.2023 37.9621 10.2023C34.7911 10.2023 31.6014 11.4456 29.2108 13.6132C28.596 14.1706 28.0448 14.7817 27.5722 15.4293C25.4115 18.3916 24.9938 23.0896 28.0346 25.8243C29.2093 26.8806 30.8601 27.3412 32.3201 27.6521C33.4686 27.8968 34.6936 28.0505 36.0646 28.1219C36.5844 30.1909 38.4319 31.6341 40.5633 31.6341C43.0121 31.6341 45.0238 29.7268 45.1907 27.3199C45.6658 27.1687 46.1205 26.9949 46.5461 26.8016C49.8642 25.2933 50.7635 21.1451 49.7159 18.0058C49.1859 16.4169 48.1756 14.9389 46.7133 13.6132V13.6132ZM45.6249 24.7745C45.207 24.9644 44.7503 25.1324 44.2675 25.274C43.5068 25.4971 42.9754 26.205 42.9754 26.9956C42.9754 28.3256 41.8933 29.4077 40.5633 29.4077C39.4524 29.4077 38.4896 28.6523 38.2218 27.5706C37.987 26.6215 37.1718 25.9499 36.1931 25.8991C34.9353 25.8341 33.8202 25.6953 32.7843 25.4747C31.6122 25.2247 30.3082 24.8743 29.5235 24.1688C27.4181 22.2753 27.7928 18.9055 29.3712 16.7415C29.7545 16.2161 30.2037 15.7184 30.7066 15.2625C32.6927 13.4615 35.3372 12.4287 37.9622 12.4287C40.5872 12.4287 43.2317 13.4615 45.2178 15.2625C46.377 16.3136 47.202 17.5058 47.604 18.7106C48.3235 20.8672 47.7714 23.7988 45.6249 24.7745Z" fill="#FFC19C"/>
<path d="M70.8073 58.0843H67.3214C68.4414 57.5158 69.4208 56.8376 70.2639 56.0466C72.8258 53.6434 74.0712 50.2483 74.0712 45.6674C74.0712 41.6897 72.0699 37.5939 68.5807 34.4299C64.9559 31.1431 60.2962 29.3329 55.4599 29.3329C54.8377 29.3329 54.2184 29.3635 53.6039 29.4225C55.4862 27.12 56.4121 24.0677 56.4207 20.1387C56.4264 17.6204 55.6236 15.018 54.0996 12.6127C53.7705 12.0934 53.0827 11.939 52.5633 12.2682C52.0439 12.5973 51.8897 13.2852 52.2188 13.8044C53.5157 15.8514 54.1988 18.0401 54.1942 20.1339C54.1856 24.0659 53.1639 26.9276 51.0708 28.8824C50.302 29.6005 49.3673 30.2122 48.2726 30.7184C48.0043 30.8256 47.7382 30.9387 47.4747 31.0579C44.9911 32.026 41.7851 32.5149 37.8854 32.5149C37.8514 32.5149 37.8165 32.5149 37.7823 32.5148C34.0588 32.5066 30.955 32.0254 28.4988 31.0804C28.1908 30.9402 27.8795 30.8076 27.5649 30.6837C26.4606 30.1681 25.5072 29.5453 24.7105 28.8144C22.4912 26.7784 21.4167 23.9155 21.4251 20.0621C21.4324 16.7114 23.1749 13.2204 26.2057 10.4844C29.4171 7.58531 33.5342 5.9902 37.803 5.9902H37.8407C42.0652 5.99941 46.1501 7.5773 49.3422 10.4332C49.8004 10.8432 50.5043 10.804 50.9142 10.3458C51.3241 9.88743 51.285 9.18369 50.8267 8.7737C47.227 5.55335 42.6168 3.77403 37.8456 3.76364H37.8028C32.9822 3.76364 28.3349 5.5627 24.7136 8.83189C21.2173 11.9883 19.2072 16.0796 19.1984 20.0573C19.19 23.9118 20.2014 27.0501 22.2047 29.4123C21.628 29.3602 21.0474 29.3333 20.4641 29.3333C15.6279 29.3333 10.9683 31.1435 7.3433 34.4304C3.85413 37.5943 1.8529 41.6902 1.8529 45.6678C1.8529 46.9126 1.95903 48.0952 2.16848 49.1824C2.28485 49.7862 2.86836 50.1815 3.4722 50.065C4.0759 49.9488 4.47104 49.3651 4.35481 48.7614C4.17209 47.8125 4.07946 46.7718 4.07946 45.6678C4.07946 42.3173 5.81425 38.8226 8.83896 36.0798C12.0534 33.1651 16.1819 31.5599 20.464 31.5599C22.6292 31.5599 24.755 31.9709 26.7433 32.7536C27.0082 32.8743 27.2799 32.9895 27.5586 33.0993C29.1945 33.8421 30.7244 34.8424 32.089 36.08C35.1137 38.8228 36.8485 42.3175 36.8485 45.668C36.8485 49.6 35.8332 52.4639 33.7444 54.4233C31.1545 56.8529 26.6862 58.0848 20.4638 58.0848C13.1448 58.0848 8.23437 56.2514 5.86902 52.6358C5.53237 52.1212 4.84243 51.9772 4.32794 52.3135C3.81346 52.6502 3.66918 53.3401 4.00584 53.8546C5.16632 55.6286 6.7972 57.0393 8.88438 58.0848H5.34637C2.44071 58.0848 0.0768433 60.4487 0.0768433 63.3543C0.0768433 66.26 2.44071 68.6238 5.34637 68.6238H9.02406C9.00877 68.7666 8.99927 68.91 8.99927 69.054C8.99927 71.3092 10.834 73.1441 13.0893 73.1441H20.2154C22.4706 73.1441 24.3054 71.3094 24.3054 69.054C24.3054 68.91 24.2958 68.7665 24.2806 68.6238H43.6804C44.2952 68.6238 44.7936 68.1255 44.7936 67.5106C44.7936 66.8956 44.2952 66.3973 43.6804 66.3973H5.34637C3.66844 66.3973 2.30341 65.0323 2.30341 63.3543C2.30341 61.6764 3.66844 60.3113 5.34637 60.3113H70.8073C72.4852 60.3113 73.8503 61.6764 73.8503 63.3543C73.8503 65.0323 72.4852 66.3973 70.8073 66.3973H48.1335C47.5187 66.3973 47.0202 66.8956 47.0202 67.5106C47.0202 68.1255 47.5187 68.6238 48.1335 68.6238H51.8725C51.8572 68.7668 51.8483 68.9103 51.8483 69.054C51.8483 71.3092 53.683 73.1441 55.9383 73.1441H63.0644C65.3196 73.1441 67.1544 71.3094 67.1544 69.054C67.1544 68.91 67.1449 68.7665 67.1296 68.6238H70.8073C73.713 68.6238 76.0768 66.26 76.0768 63.3543C76.0768 60.4487 73.713 58.0843 70.8073 58.0843V58.0843ZM22.0788 69.0536C22.0788 70.0811 21.243 70.9171 20.2154 70.9171H13.0893C12.0618 70.9171 11.2258 70.0811 11.2258 69.0536C11.2258 68.9083 11.245 68.764 11.2787 68.6234H22.0257C22.0594 68.764 22.0788 68.9081 22.0788 69.0536ZM67.0849 36.0794C70.1097 38.8222 71.8444 42.3169 71.8444 45.6674C71.8444 49.5994 70.8291 52.4633 68.7403 54.4227C66.1504 56.8523 61.6821 58.0842 55.4598 58.0842C49.4477 58.0842 45.047 56.8489 42.3798 54.4126C40.1562 52.3814 39.0751 49.5208 39.0751 45.6674C39.0751 42.3169 40.8099 38.8222 43.8346 36.0794C45.1395 34.8962 46.5951 33.9288 48.1504 33.1969C48.5546 33.0428 48.944 32.8771 49.3179 32.6996C51.2666 31.9518 53.3442 31.5593 55.4596 31.5593C59.742 31.5594 63.8707 33.1648 67.0849 36.0794V36.0794ZM33.6883 34.526C34.9695 34.6661 36.3329 34.7381 37.7773 34.7412C37.8149 34.7414 37.852 34.7414 37.8894 34.7414C39.4423 34.7414 40.8893 34.6692 42.2359 34.5257C40.3294 36.2796 38.8756 38.3129 37.962 40.4507C37.0483 38.3129 35.5947 36.2798 33.6883 34.526V34.526ZM32.3256 58.0843C33.4456 57.5158 34.425 56.8376 35.2681 56.0466C36.4725 54.9167 37.3823 53.5644 38.0121 51.976C38.6816 53.5563 39.6357 54.9216 40.8783 56.0567C41.7361 56.8403 42.7342 57.5161 43.8689 58.0843H32.3256ZM64.9278 69.0536C64.9278 70.0811 64.092 70.9171 63.0644 70.9171H55.9383C54.9108 70.9171 54.0748 70.0811 54.0748 69.0536C54.0748 68.9068 54.0918 68.7629 54.1252 68.6234H64.8758C64.9091 68.7629 64.9278 68.9063 64.9278 69.0536V69.0536Z" fill="#FFC19C"/>
<path d="M21.8636 36.1748C22.4784 36.1748 22.9769 35.6764 22.9769 35.0615C22.9769 34.4467 22.4784 33.9482 21.8636 33.9482C21.2487 33.9482 20.7503 34.4467 20.7503 35.0615C20.7503 35.6764 21.2487 36.1748 21.8636 36.1748Z" fill="#FFC19C"/>
<path d="M48.9965 54.5811C49.6114 54.5811 50.1098 54.0826 50.1098 53.4678C50.1098 52.8529 49.6114 52.3545 48.9965 52.3545C48.3817 52.3545 47.8832 52.8529 47.8832 53.4678C47.8832 54.0826 48.3817 54.5811 48.9965 54.5811Z" fill="#FFC19C"/>
<path d="M16.0389 38.9209C16.6538 38.9209 17.1522 38.4225 17.1522 37.8076C17.1522 37.1928 16.6538 36.6943 16.0389 36.6943C15.4241 36.6943 14.9256 37.1928 14.9256 37.8076C14.9256 38.4225 15.4241 38.9209 16.0389 38.9209Z" fill="#FFC19C"/>
<path d="M45.4097 46.4128C44.7949 46.4128 44.2965 45.9145 44.2965 45.2996V43.5183C44.2965 42.9033 44.7949 42.405 45.4097 42.405C46.0246 42.405 46.523 42.9033 46.523 43.5183V45.2996C46.523 45.9144 46.0246 46.4128 45.4097 46.4128Z" fill="#FFC19C"/>
<path d="M55.1467 47.5714C53.8412 47.5714 52.5995 47.0059 51.7403 46.0201C51.3364 45.5565 51.3847 44.8534 51.8482 44.4493C52.3118 44.0454 53.015 44.0937 53.419 44.5572C53.8553 45.0578 54.4849 45.345 55.1468 45.345C55.8087 45.345 56.4384 45.0578 56.8746 44.5572C57.2785 44.0937 57.9817 44.0456 58.4454 44.4493C58.909 44.8534 58.9572 45.5565 58.5533 46.0201C57.6937 47.006 56.4522 47.5714 55.1467 47.5714V47.5714Z" fill="#FFC19C"/>
<path d="M67.2914 46.3631C66.6766 46.3631 66.1782 45.8648 66.1782 45.2498C66.1782 44.7256 65.7515 44.2989 65.2273 44.2989C64.703 44.2989 64.2764 44.7256 64.2764 45.2498C64.2764 45.8648 63.7779 46.3631 63.1631 46.3631C62.5483 46.3631 62.0498 45.8648 62.0498 45.2498C62.0498 43.4977 63.4753 42.0724 65.2273 42.0724C66.9793 42.0724 68.4047 43.4978 68.4047 45.2498C68.4047 45.8647 67.9064 46.3631 67.2914 46.3631Z" fill="#FFC19C"/>
<path d="M11.1942 46.2956C10.5794 46.2956 10.0809 45.7973 10.0809 45.1823V43.4011C10.0809 42.7861 10.5794 42.2878 11.1942 42.2878C11.8091 42.2878 12.3075 42.7861 12.3075 43.4011V45.1823C12.3075 45.7971 11.8092 46.2956 11.1942 46.2956Z" fill="#FFC19C"/>
<path d="M29.7337 46.2956C29.1189 46.2956 28.6205 45.7973 28.6205 45.1823V43.4011C28.6205 42.7861 29.1189 42.2878 29.7337 42.2878C30.3486 42.2878 30.847 42.7861 30.847 43.4011V45.1823C30.847 45.7971 30.3486 46.2956 29.7337 46.2956Z" fill="#FFC19C"/>
<path d="M20.4641 47.3559C19.2057 47.3559 18.009 46.8109 17.1808 45.8608C16.7769 45.3972 16.8252 44.6941 17.2888 44.29C17.7523 43.8861 18.4556 43.9344 18.8595 44.3979C19.2646 44.8628 19.8495 45.1294 20.4641 45.1294C21.0788 45.1294 21.6637 44.8628 22.0687 44.3979C22.4728 43.9344 23.1759 43.8863 23.6395 44.29C24.1031 44.6941 24.1513 45.3972 23.7474 45.8608C22.9193 46.8109 21.7226 47.3559 20.4641 47.3559Z" fill="#FFC19C"/>
</g>
<defs>
<clipPath id="clip0_302_91">
<rect width="76" height="76" fill="white" transform="translate(0.0768433 0.453461)"/>
</clipPath>
</defs>
</svg>
