<svg width="76" height="76" viewBox="0 0 76 76" fill="none" xmlns="http://www.w3.org/2000/svg">
<g clip-path="url(#clip0_302_71)">
<path d="M26.6326 33.8111C26.0177 33.8111 25.5192 33.3126 25.5192 32.6977V30.8962C25.5192 30.2813 26.0177 29.7828 26.6326 29.7828C27.2475 29.7828 27.746 30.2813 27.746 30.8962V32.6977C27.746 33.3126 27.2475 33.8111 26.6326 33.8111Z" fill="#FFC19C"/>
<path d="M37.8514 39.2863C35.2761 39.2863 33.181 37.0013 33.181 34.1928C33.181 32.3892 34.0791 31.555 34.8325 31.1729C35.6483 30.7592 36.6293 30.6746 37.8512 30.6746C39.0731 30.6746 40.0541 30.7593 40.8699 31.1729C41.6233 31.555 42.5214 32.3891 42.5214 34.1928C42.5217 37.0013 40.4266 39.2863 37.8514 39.2863ZM37.8514 32.9014C35.5067 32.9014 35.4078 33.2973 35.4078 34.1928C35.4078 35.7734 36.504 37.0595 37.8514 37.0595C39.1987 37.0595 40.2948 35.7734 40.2948 34.1928C40.2949 33.2973 40.1961 32.9014 37.8514 32.9014V32.9014Z" fill="#FFC19C"/>
<path d="M49.0701 33.8111C48.4552 33.8111 47.9567 33.3126 47.9567 32.6977V30.8962C47.9567 30.2813 48.4552 29.7828 49.0701 29.7828C49.685 29.7828 50.1835 30.2813 50.1835 30.8962V32.6977C50.1835 33.3126 49.685 33.8111 49.0701 33.8111Z" fill="#FFC19C"/>
<path d="M8.36244 54.8662C7.8859 54.4813 7.18103 54.5561 6.79609 55.0328C6.41115 55.5093 6.48612 56.2142 6.96266 56.5993L8.69558 57.9992C9.17212 58.3842 9.87698 58.3092 10.2619 57.8326C10.6469 57.3561 10.5719 56.6512 10.0954 56.2663L8.36244 54.8662Z" fill="#FFC19C"/>
<path d="M14.2943 37.9367L12.4309 39.1576C11.9184 39.4934 11.774 40.1873 12.1096 40.6997C12.4454 41.2122 13.1393 41.3566 13.6518 41.021L15.5152 39.8001C16.0277 39.4643 16.1721 38.7704 15.8365 38.2579C15.5007 37.7455 14.8066 37.6009 14.2943 37.9367V37.9367Z" fill="#FFC19C"/>
<path d="M25.7288 21.7777C25.2522 21.3927 24.5474 21.4677 24.1624 21.9442C23.7775 22.4208 23.8524 23.1256 24.329 23.5106L26.0619 24.9105C26.5384 25.2954 27.2433 25.2206 27.6282 24.7439C28.0132 24.2674 27.9382 23.5625 27.4617 23.1774L25.7288 21.7777Z" fill="#FFC19C"/>
<path d="M63.6621 39.6599L61.7987 40.8808C61.2862 41.2166 61.1418 41.9105 61.4774 42.423C61.8132 42.9355 62.5071 43.0799 63.0196 42.7442L64.883 41.5233C65.3954 41.1875 65.5399 40.4937 65.2042 39.9812C64.8684 39.4687 64.1745 39.3241 63.6621 39.6599Z" fill="#FFC19C"/>
<path d="M52.0737 21.3275C51.5972 20.9426 50.8923 21.0175 50.5074 21.4941C50.1224 21.9706 50.1974 22.6755 50.6739 23.0606L52.4068 24.4605C52.8834 24.8455 53.5882 24.7705 53.9732 24.2939C54.3581 23.8174 54.2832 23.1125 53.8066 22.7275L52.0737 21.3275Z" fill="#FFC19C"/>
<path d="M37.5302 13.7832L39.3936 12.5623C39.9061 12.2265 40.0505 11.5326 39.7148 11.0201C39.3792 10.5077 38.6852 10.3632 38.1727 10.6989L36.3093 11.9198C35.7968 12.2556 35.6524 12.9495 35.988 13.4619C36.3237 13.9744 37.0177 14.119 37.5302 13.7832V13.7832Z" fill="#FFC19C"/>
<path d="M63.6525 58.2611C63.2675 58.7376 63.3425 59.4425 63.8191 59.8276L65.552 61.2275C66.0285 61.6125 66.7334 61.5375 67.1183 61.061C67.5033 60.5844 67.4283 59.8795 66.9518 59.4946L65.2188 58.0947C64.7425 57.7096 64.0374 57.7846 63.6525 58.2611Z" fill="#FFC19C"/>
<path d="M75.4732 46.9678C74.9566 44.7603 74.0896 42.5137 72.7452 39.8976C70.3325 35.2033 67.4894 30.6502 64.74 26.247L64.3316 25.5929C63.4712 24.2142 62.678 22.9773 61.9068 21.8112C61.5675 21.2983 60.8766 21.1575 60.3639 21.4968C59.851 21.836 59.7102 22.5267 60.0494 23.0396C60.8098 24.1891 61.5926 25.41 62.4425 26.7718L62.8511 27.4263C65.5763 31.7906 68.3944 36.3037 70.7646 40.9153C72.0237 43.3651 72.8308 45.4494 73.305 47.4751C74.3737 52.0402 73.5988 57.0292 71.1788 61.1628C68.5697 65.6196 64.225 68.7585 59.2932 69.9224V49.8478C59.2932 46.5814 56.7439 43.9239 53.6103 43.9239H22.3899C19.2563 43.9239 16.7071 46.5814 16.7071 49.8478V57.3517C16.7071 57.9666 17.2056 58.4651 17.8205 58.4651C18.4354 58.4651 18.9339 57.9666 18.9339 57.3517V49.8478C18.9339 47.8093 20.4842 46.1507 22.3899 46.1507H53.6103C55.5161 46.1507 57.0664 47.8093 57.0664 49.8478V70.3057C56.3894 70.3808 55.7056 70.4213 55.0165 70.4213H20.9836C20.2946 70.4213 19.6107 70.3808 18.9337 70.3057V61.9061C18.9337 61.2912 18.4352 60.7927 17.8203 60.7927C17.2054 60.7927 16.7069 61.2912 16.7069 61.9061V69.9227C11.7752 68.759 7.43038 65.6199 4.82128 61.1631C2.40146 57.0295 1.62638 52.0405 2.69511 47.4754C3.16912 45.4497 3.97642 43.3654 5.23547 40.9156C7.60571 36.304 10.4237 31.7909 13.149 27.4266L13.5576 26.7721C15.9881 22.878 19.2936 17.8219 23.3151 13.2526C26.7849 9.30992 30.3814 6.95171 34.3104 6.04287C35.5101 5.76525 36.7512 5.60938 38 5.57909C39.2488 5.60938 40.4899 5.76525 41.6895 6.04287C45.6186 6.95171 49.215 9.31007 52.6849 13.2526C54.2546 15.0363 55.7852 16.9647 57.364 19.1485C57.7243 19.6467 58.4201 19.7586 58.9187 19.3985C59.417 19.0382 59.529 18.3421 59.1687 17.8439C57.548 15.602 55.9739 13.6191 54.3568 11.7815C50.5689 7.47754 46.5896 4.8907 42.1916 3.87334C40.8361 3.5598 39.4345 3.38448 38.0257 3.35226C38.0087 3.35182 37.9917 3.35182 37.9747 3.35226C36.5659 3.38448 35.1642 3.55965 33.8088 3.87334C29.4108 4.8907 25.4315 7.47754 21.6436 11.7815C17.5152 16.4726 14.1443 21.6268 11.6689 25.5932L11.2605 26.2475C8.51114 30.6506 5.66807 35.2038 3.25538 39.8981C1.91067 42.5137 1.04369 44.7603 0.527067 46.9678C-0.670224 52.0831 0.194527 57.6671 2.89968 62.2881C6.64075 68.6785 13.57 72.6482 20.9836 72.6482H55.0165C62.4301 72.6482 69.3594 68.6785 73.1004 62.2881C75.8057 57.6671 76.6705 52.0831 75.4732 46.9678V46.9678Z" fill="#FFC19C"/>
</g>
<defs>
<clipPath id="clip0_302_71">
<rect width="76" height="76" fill="white"/>
</clipPath>
</defs>
</svg>
