<svg width="77" height="77" viewBox="0 0 77 77" fill="none" xmlns="http://www.w3.org/2000/svg">
<g clip-path="url(#clip0_302_66)">
<path d="M72.0541 8.4967C72.9948 8.4967 73.7603 7.73135 73.7603 6.79055V2.97734C73.7603 2.51437 73.578 2.08123 73.247 1.75748C72.9161 1.43389 72.48 1.26289 72.0166 1.27165L36.2219 2.05837C35.6356 1.09679 34.5771 0.453461 33.3709 0.453461C32.5175 0.453461 31.7383 0.775867 31.1477 1.30475C30.5571 0.775867 29.7779 0.453461 28.9246 0.453461C28.0712 0.453461 27.292 0.775867 26.7014 1.30475C26.1108 0.775867 25.3316 0.453461 24.4783 0.453461C22.6385 0.453461 21.1418 1.95016 21.1418 3.79004V22.6903C18.5393 20.4198 15.2134 19.1226 11.8924 20.0129C10.1934 20.468 8.70856 21.432 7.47935 22.8778C7.08109 23.3461 7.13794 24.0488 7.60626 24.447C8.07473 24.8452 8.77728 24.7885 9.17554 24.3201C12.6831 20.1946 18.2028 21.6827 21.9756 26.927C21.1046 27.9647 21.6131 29.7314 21.4439 30.4996C21.1645 30.6649 20.3602 30.844 19.7924 31.0354C18.2534 29.8347 16.3375 29.4041 14.5378 29.8864C11.3301 30.746 9.44896 34.2402 10.2197 37.7836H7.17267C6.74488 36.1157 6.52801 34.4384 6.52801 32.7944C6.52801 31.2758 6.71311 29.8285 7.07812 28.4929C7.24021 27.8999 6.89094 27.2875 6.29778 27.1255C5.70463 26.9628 5.09247 27.3128 4.93038 27.9058C4.51297 29.4326 4.30145 31.0775 4.30145 32.7944C4.30145 34.4424 4.49739 36.1171 4.88228 37.7836H4.06128C3.14839 37.7836 2.40575 38.5262 2.40575 39.4391C2.40575 44.9469 2.26667 42.1916 2.92083 48.2337C3.10222 49.9093 3.43413 51.5853 3.90735 53.2153C6.37497 61.7157 12.6962 68.6842 20.8968 71.9969V74.0682C20.8968 75.3834 21.9667 76.4535 23.282 76.4535H48.2075C49.5228 76.4535 50.5927 75.3834 50.5927 74.0682V71.9971C52.6033 71.1851 54.5242 70.1447 56.3122 68.8981C56.8166 68.5465 56.9404 67.8525 56.5887 67.3483C56.2371 66.8439 55.5431 66.72 55.0389 67.0718C50.1631 70.4708 48.3662 69.7392 48.3662 71.2351C48.3662 74.2164 48.4266 74.227 48.2075 74.227C21.6302 74.227 23.1232 74.3044 23.1232 74.0684V71.2351C23.1232 70.7702 22.8343 70.3543 22.3987 70.1921C14.9726 67.4243 9.123 61.4398 6.50307 54.0183H64.9839C63.6874 57.6919 61.5836 61.0691 58.8444 63.8569C58.4134 64.2955 58.4197 65.0003 58.8582 65.4312C59.2967 65.8621 60.0016 65.8559 60.4325 65.4174C63.7796 62.0109 66.2511 57.7916 67.5798 53.2153C68.0503 51.5939 68.3815 49.9179 68.5637 48.2337C69.2225 42.1485 69.0788 44.9071 69.0788 39.4391C69.0788 38.5262 68.3362 37.7836 67.4233 37.7836H66.1497C65.2393 34.5794 63.341 31.6904 60.7337 29.5769C57.8497 27.2393 54.2131 25.9519 50.494 25.9519H49.0457C44.74 25.9519 40.5891 27.6806 37.548 30.7157C37.3186 30.6461 37.0876 30.5676 36.9722 30.499C36.9227 30.2878 36.9421 29.7811 36.954 29.4678C36.9801 28.7875 37.0092 27.9908 36.7074 27.3459V17.3917H72.0541C72.9948 17.3917 73.7603 16.6263 73.7603 15.6855V11.8725C73.7603 11.4096 73.578 10.9763 73.2471 10.6527C72.9162 10.329 72.4757 10.1553 72.0167 10.1669L36.7074 10.9428V8.4967H72.0541ZM36.7089 4.27469L71.5335 3.50934V6.27013H36.7079C36.7094 5.195 36.711 4.67977 36.7089 4.27469V4.27469ZM38.1428 33.2277C37.323 34.5061 35.6816 35.6112 37.1919 37.7834H34.324C35.4058 35.938 35.1563 33.5216 33.5748 31.94C31.3356 29.701 27.6919 29.701 25.4528 31.94C23.7675 33.6252 23.241 35.9217 23.4917 37.7834H21.2254C22.7307 35.6164 21.1038 34.5211 20.2747 33.227C21.2261 32.8452 22.7457 32.7533 23.3809 31.6187C23.385 31.6112 23.3893 31.604 23.3933 31.5964C23.9014 30.6609 23.6203 29.389 23.6832 28.5414C24.5446 28.7528 25.813 29.5049 26.9342 29.1421C27.727 28.8847 28.2125 28.1565 28.682 27.4523C28.826 27.2365 29.0415 26.9132 29.2088 26.7208C29.3761 26.9132 29.5918 27.2365 29.7358 27.4523C30.2118 28.1663 30.6896 28.8775 31.4836 29.1421C32.5922 29.5025 33.8251 28.7721 34.7356 28.5405C34.7993 29.4985 34.4711 30.868 35.1626 31.8182C35.8502 32.7634 37.2604 32.8727 38.1428 33.2277V33.2277ZM45.953 37.7834C47.4102 35.9685 49.3677 36.1332 50.1317 36.1332C51.5095 36.1332 52.7636 36.7589 53.5863 37.7834H45.953ZM56.1833 37.7834C55.1076 35.4341 52.7709 33.9067 50.1318 33.9067H49.4076C46.7685 33.9067 44.4317 35.4342 43.3561 37.7834H40.1052C41.7702 34.4167 45.1933 32.2451 49.0456 32.2451H50.4939C54.3461 32.2451 57.7692 34.4167 59.4342 37.7834H56.1833ZM25.7476 37.7834C25.4906 36.6013 25.7088 34.8328 27.0271 33.5145C28.3982 32.1434 30.6292 32.1435 32.0002 33.5144C33.0103 34.5246 33.0103 36.1681 32.0002 37.1781C31.6508 37.5275 31.1863 37.7199 30.6922 37.7199C30.198 37.7199 29.7335 37.5275 29.3841 37.1781C29.1466 36.9406 29.0158 36.6249 29.0158 36.2892C29.0158 35.9536 29.1466 35.6378 29.3841 35.4004C29.8189 34.9656 29.8189 34.2607 29.3841 33.8261C28.9492 33.3911 28.2444 33.3913 27.8096 33.8259C27.1516 34.4839 26.7891 35.3588 26.7891 36.2894C26.7891 36.8149 26.9049 37.3227 27.124 37.7836H25.7476V37.7834ZM33.3709 2.68002C34.3229 2.68002 34.4855 3.67634 34.446 3.51929C34.4982 3.72666 34.4807 2.44772 34.4807 26.3226C33.6893 26.4575 32.8101 26.9012 32.261 27.003V3.79004C32.261 3.17788 32.7588 2.68002 33.3709 2.68002V2.68002ZM28.9246 2.68002C29.5366 2.68002 30.0344 3.17788 30.0344 3.79004V24.5747C29.3409 24.2349 28.5156 24.3304 27.8147 24.9701V3.79004C27.8147 3.17788 28.3126 2.68002 28.9246 2.68002V2.68002ZM24.4783 2.68002C25.0903 2.68002 25.5881 3.17788 25.5881 3.79004V26.8381C25.2075 26.706 24.7389 26.5188 24.3174 26.4057C24.0145 25.9375 23.6972 25.4919 23.3684 25.0674V3.79004C23.3684 3.17788 23.8663 2.68002 24.4783 2.68002V2.68002ZM12.4563 37.5631C11.7926 35.0865 12.9849 32.6074 15.1141 32.037C16.0816 31.7781 17.118 31.9555 18.0215 32.5105C17.5275 34.0471 19.3566 35.4194 19.6168 36.1417C19.5 36.4663 18.818 37.2198 18.4467 37.7836H12.5204C12.4974 37.7102 12.476 37.6369 12.4563 37.5631ZM5.8259 51.7915C5.50439 50.541 5.27238 49.2671 5.13448 47.9938L4.75938 44.5287H66.7254C66.3351 48.1338 66.2495 49.498 65.6611 51.7915H5.8259ZM66.8523 42.3023C65.5183 42.3023 5.46757 42.3023 4.63232 42.3023V40.0101H65.2874H66.8523V42.3023ZM49.0456 28.1783H50.4939C56.539 28.1783 61.9354 32.1422 63.8231 37.7834H61.8622C61.0334 35.6774 59.6081 33.8014 57.7845 32.4397C54.2278 29.7841 50.848 30.0185 49.0456 30.0185C45.7505 30.0185 42.6771 31.3227 40.3957 33.6242C40.6119 32.8971 40.4074 32.1567 39.8092 31.6472C42.355 29.4273 45.6447 28.1783 49.0456 28.1783V28.1783ZM71.5335 12.4046V15.1651H36.7073V13.1698L71.5335 12.4046Z" fill="#FFC19C"/>
</g>
<defs>
<clipPath id="clip0_302_66">
<rect width="76" height="76" fill="white" transform="translate(0.0767212 0.453461)"/>
</clipPath>
</defs>
</svg>
